<svg width="29" height="40" viewBox="0 0 29 40" fill="none" xmlns="http://www.w3.org/2000/svg">
<path d="M14.1996 5.68457C15.5645 5.68457 16.8988 6.08931 18.0337 6.84761C19.1685 7.60591 20.0531 8.68371 20.5754 9.94471C21.0977 11.2057 21.2344 12.5933 20.9681 13.932C20.7018 15.2706 20.0446 16.5003 19.0794 17.4654C18.1143 18.4306 16.8846 19.0878 15.546 19.3541C14.2073 19.6204 12.8197 19.4837 11.5587 18.9614C10.2977 18.4391 9.21992 17.5545 8.46162 16.4197C7.70332 15.2848 7.29858 13.9505 7.29858 12.5856C7.29858 10.7554 8.02565 9.00005 9.31985 7.70585C10.6141 6.41164 12.3694 5.68457 14.1996 5.68457ZM14.1996 17.0779C15.0881 17.0779 15.9567 16.8145 16.6954 16.3209C17.4342 15.8272 18.01 15.1256 18.35 14.3048C18.69 13.4839 18.779 12.5806 18.6056 11.7092C18.4323 10.8378 18.0044 10.0373 17.3762 9.40909C16.7479 8.78083 15.9475 8.35297 15.076 8.17964C14.2046 8.0063 13.3014 8.09526 12.4805 8.43528C11.6596 8.77529 10.958 9.35108 10.4644 10.0898C9.9708 10.8286 9.70733 11.6971 9.70733 12.5856C9.71052 13.775 10.1852 14.9145 11.0273 15.7544C11.8695 16.5943 13.0103 17.0659 14.1996 17.0659V17.0779Z" fill="#BE52A6"/>
<path d="M14.1996 1.19224e-09C17.9509 0.00313327 21.5487 1.49064 24.2069 4.13762C26.8652 6.78461 28.368 10.376 28.3871 14.1273C28.3871 19.7517 25.2316 24.4608 22.9192 27.8933L22.4977 28.5196C20.197 31.854 17.7289 35.0698 15.1028 38.1546L14.1875 39.2265L13.2722 38.1546C10.6465 35.0695 8.17838 31.8538 5.87733 28.5196L5.4558 27.8813C3.15545 24.4488 -1.14441e-05 19.7517 -1.14441e-05 14.1273C0.0190907 10.3739 1.52354 6.7807 4.18441 4.13338C6.84528 1.48605 10.4461 -4.86038e-05 14.1996 1.19224e-09ZM7.46711 26.4962L7.90068 27.1345C9.97221 30.2418 12.7182 33.7225 14.1996 35.4447C15.6207 33.7225 18.4269 30.2418 20.4984 27.1345L20.92 26.4962C23.0517 23.3167 25.9783 18.9689 25.9783 14.0791C25.9783 12.5323 25.6737 11.0007 25.0817 9.57159C24.4898 8.14252 23.6222 6.84404 22.5284 5.75028C21.4347 4.65652 20.1362 3.7889 18.7071 3.19696C17.278 2.60502 15.7464 2.30035 14.1996 2.30035C12.6527 2.30035 11.1211 2.60502 9.69202 3.19696C8.26295 3.7889 6.96447 4.65652 5.8707 5.75028C4.77695 6.84404 3.90933 8.14252 3.31739 9.57159C2.72545 11.0007 2.42078 12.5323 2.42078 14.0791C2.42078 19.0171 5.33537 23.3649 7.46711 26.4962Z" fill="#BE52A6"/>
</svg>
