<svg width="25" height="25" viewBox="0 0 25 25" fill="none" xmlns="http://www.w3.org/2000/svg">
<path d="M3.55193 0C2.02497 0 0.775146 1.28599 0.775146 2.85714V21.1428C0.775146 22.714 2.02497 24 3.55193 24H12.8997C12.9597 24.0102 13.0209 24.0102 13.0808 24H16.2318C16.2918 24.0102 16.353 24.0102 16.413 24H21.3233C22.8503 24 24.1001 22.714 24.1001 21.1428V2.85714C24.1001 1.28599 22.8503 0 21.3233 0H3.55193ZM3.55193 1.14286H21.3233C22.2499 1.14286 22.9894 1.90372 22.9894 2.85714V21.1428C22.9894 22.0963 22.2499 22.8571 21.3233 22.8571H16.8805V14.8571H19.0021L19.7798 10.8571H16.8805V9.71428C16.8805 9.39571 16.9099 9.37081 17.0139 9.30133C17.1178 9.23185 17.4391 9.14285 17.9912 9.14285H19.6572V5.92522L19.3405 5.77008C19.3405 5.77008 18.0648 5.14285 16.3251 5.14285C15.0756 5.14285 14.049 5.65511 13.3921 6.49999C12.7352 7.34488 12.4376 8.47618 12.4376 9.71428V10.8571H10.7716V14.8571H12.4376V22.8571H3.55193C2.62532 22.8571 1.88586 22.0963 1.88586 21.1428V2.85714C1.88586 1.90372 2.62532 1.14286 3.55193 1.14286ZM16.3251 6.28571C17.4797 6.28571 18.2063 6.54768 18.5465 6.68638V7.99999H17.9912C17.3521 7.99999 16.8399 8.05439 16.4086 8.34263C15.9774 8.63086 15.7698 9.17799 15.7698 9.71428V12H18.424L18.091 13.7143H15.7698V22.8571H13.5483V13.7143H11.8823V12H13.5483V9.71428C13.5483 8.66666 13.8061 7.79797 14.2599 7.21428C14.7137 6.63059 15.3532 6.28571 16.3251 6.28571Z" fill="black"/>
</svg>
