<svg width="24" height="24" viewBox="0 0 24 24" fill="none" xmlns="http://www.w3.org/2000/svg">
<g filter="url(#filter0_i_159_19)">
<path d="M23.5759 11.996C23.5759 13.6784 23.544 15.3657 23.585 17.0481C23.6533 20.0262 21.8903 22.3274 19.6443 23.3523C18.7423 23.7633 17.7948 23.9808 16.8153 23.9808C13.7493 23.9857 10.6788 24.0292 7.61286 23.9663C5.30314 23.918 3.40343 22.8931 2.04129 20.8722C1.32605 19.8086 0.984375 18.6 0.984375 17.2898C0.984375 13.8235 0.984375 10.3619 0.984375 6.89555C0.984375 4.06734 2.28274 2.09 4.5879 0.804015C5.59014 0.248042 6.67895 0.0111491 7.81331 0.00631452C10.7881 0.00631452 13.7675 -0.0130237 16.7424 0.0159836C19.0521 0.0353218 20.9792 0.973224 22.4005 2.94572C23.1932 4.048 23.5759 5.31465 23.5759 6.707C23.5759 8.46677 23.5759 10.2314 23.5759 11.996ZM2.66541 11.996C2.66541 13.7703 2.66541 15.5397 2.66541 17.314C2.66541 18.1069 2.83853 18.8514 3.22576 19.5234C4.24167 21.288 5.77693 22.1485 7.68119 22.1824C10.738 22.2307 13.7994 22.2017 16.8608 22.1921C17.6125 22.1921 18.3414 22.0277 19.0202 21.6844C20.8698 20.7465 21.904 19.2527 21.8948 17.0094C21.8766 13.5769 21.8903 10.1444 21.8903 6.71183C21.8903 5.74009 21.6306 4.85053 21.0885 4.06734C20.0407 2.56379 18.592 1.8241 16.8608 1.80477C13.8086 1.76609 10.7563 1.79026 7.70397 1.7951C7.05251 1.7951 6.42383 1.9353 5.81337 2.17703C4.13689 2.83936 2.57886 4.51695 2.65175 6.9874C2.70641 8.66016 2.66541 10.3281 2.66541 11.996Z" fill="#E65DC8"/>
<path d="M12.3053 17.1205C9.36692 17.1205 6.99797 14.6355 6.99341 11.5414C6.98886 8.49562 9.37603 6.00098 12.2962 6.00098C15.2255 5.99615 17.6036 8.48595 17.6081 11.5559C17.6081 14.621 15.2346 17.1156 12.3053 17.1205ZM12.3053 15.3317C14.3053 15.3317 15.9271 13.6348 15.9225 11.5462C15.918 9.47704 14.2962 7.78494 12.3053 7.78494C10.3054 7.78494 8.67446 9.4722 8.67446 11.5559C8.67901 13.6444 10.3054 15.3365 12.3053 15.3317Z" fill="#BE52A6"/>
<path d="M18.2229 4.30884C18.8379 4.30884 19.3391 4.86481 19.3391 5.54648C19.3345 6.22814 18.8288 6.77928 18.2138 6.77444C17.6079 6.76961 17.1114 6.21847 17.1114 5.55131C17.1068 4.86964 17.6079 4.30884 18.2229 4.30884Z" fill="#E65DC8"/>
</g>
<defs>
<filter id="filter0_i_159_19" x="0.984375" y="0" width="22.6025" height="28" filterUnits="userSpaceOnUse" color-interpolation-filters="sRGB">
<feFlood flood-opacity="0" result="BackgroundImageFix"/>
<feBlend mode="normal" in="SourceGraphic" in2="BackgroundImageFix" result="shape"/>
<feColorMatrix in="SourceAlpha" type="matrix" values="0 0 0 0 0 0 0 0 0 0 0 0 0 0 0 0 0 0 127 0" result="hardAlpha"/>
<feOffset dy="4"/>
<feGaussianBlur stdDeviation="2"/>
<feComposite in2="hardAlpha" operator="arithmetic" k2="-1" k3="1"/>
<feColorMatrix type="matrix" values="0 0 0 0 0 0 0 0 0 0 0 0 0 0 0 0 0 0 0.25 0"/>
<feBlend mode="normal" in2="shape" result="effect1_innerShadow_159_19"/>
</filter>
</defs>
</svg>
