<svg width="24" height="24" viewBox="0 0 24 24" fill="none" xmlns="http://www.w3.org/2000/svg">
<path d="M2.9151 0C1.41867 0 0.193848 1.26027 0.193848 2.8V20.72C0.193848 22.2597 1.41867 23.52 2.9151 23.52H20.3311C21.8275 23.52 23.0524 22.2597 23.0524 20.72V2.8C23.0524 1.26027 21.8275 0 20.3311 0H2.9151ZM2.9151 1.12H20.3311C21.2392 1.12 21.9639 1.86565 21.9639 2.8V20.72C21.9639 21.6544 21.2392 22.4 20.3311 22.4H2.9151C2.00703 22.4 1.28235 21.6544 1.28235 20.72V2.8C1.28235 1.86565 2.00703 1.12 2.9151 1.12ZM10.7504 6.71563C10.1749 6.71427 9.66166 6.74737 9.20268 6.97922L9.20162 6.98032C8.97786 7.09375 8.82015 7.23783 8.69457 7.40907C8.63178 7.49469 8.56746 7.57154 8.533 7.76673C8.51577 7.86432 8.50609 8.02246 8.60528 8.19329C8.70447 8.36411 8.90393 8.46125 9.03154 8.47876C9.12019 8.4909 9.32029 8.57853 9.33874 8.60454L9.33981 8.60673C9.33981 8.60673 9.4174 8.81505 9.43973 9.00048C9.46205 9.1859 9.46099 9.33626 9.46099 9.33626C9.46076 9.35121 9.46111 9.36617 9.46205 9.3811C9.46205 9.3811 9.49358 9.86693 9.47268 10.3688C9.46435 10.5688 9.43921 10.7467 9.41315 10.9058C9.21934 10.6856 8.93376 10.2869 8.52131 9.55173C8.06376 8.7357 7.69961 8.00407 7.69961 8.00407C7.68049 7.94033 7.61286 7.74202 7.34883 7.54251C7.0602 7.32362 6.78119 7.29094 6.78119 7.29094C6.74619 7.28372 6.71059 7.28006 6.67489 7.28001L4.52978 7.2811C4.52978 7.2811 4.40117 7.27344 4.24703 7.29532C4.09289 7.31719 3.86078 7.33499 3.63687 7.60813L3.63581 7.60922C3.43569 7.85525 3.4478 8.12719 3.47211 8.28079C3.49641 8.43439 3.55077 8.55094 3.55077 8.55094C3.55182 8.55314 3.55288 8.55533 3.55396 8.55751C3.55396 8.55751 5.30856 12.3533 7.29143 14.5885C8.73134 16.2113 10.2093 16.2389 11.4286 16.2389H12.3385C12.5708 16.2389 12.7809 16.2296 13.0135 16.0902C13.2461 15.9508 13.4026 15.6114 13.4026 15.3759C13.4026 15.1293 13.4383 14.9353 13.4823 14.8356C13.5132 14.7655 13.5376 14.7403 13.5758 14.7197C13.5839 14.725 13.5787 14.7219 13.6013 14.7383C13.6919 14.8039 13.8415 14.9533 14.0042 15.1397C14.3295 15.5125 14.6988 16.0239 15.1948 16.3745C15.55 16.626 15.8857 16.7376 16.1408 16.7781C16.3007 16.8035 16.4248 16.7986 16.5129 16.7913L18.5453 16.8C18.5573 16.8001 18.5694 16.7997 18.5814 16.7989C18.5814 16.7989 18.9316 16.8031 19.2958 16.5791C19.4778 16.467 19.6926 16.2546 19.7624 15.9447C19.8323 15.6348 19.7445 15.3136 19.5732 15.0205V15.0194C19.6029 15.0701 19.5463 14.9659 19.4882 14.8685C19.4301 14.771 19.3457 14.6398 19.2245 14.4769C18.9823 14.1512 18.5942 13.6953 17.967 13.0944H17.966C17.6474 12.7894 17.4323 12.5735 17.3441 12.4534C17.2559 12.3334 17.2849 12.3965 17.291 12.3659C17.3032 12.3049 17.6855 11.7374 18.4634 10.6684C18.9363 10.0178 19.2682 9.52929 19.4871 9.12298C19.706 8.71666 19.8638 8.36478 19.7539 7.93407L19.7528 7.93188C19.7041 7.74281 19.5708 7.56854 19.434 7.4736C19.2971 7.37866 19.1674 7.34152 19.0513 7.31829C18.8191 7.27181 18.6165 7.28001 18.4284 7.28001C18.0339 7.28001 16.2838 7.29423 16.1397 7.29423C15.9695 7.29423 15.6881 7.37388 15.5636 7.45063C15.2506 7.64444 15.1607 7.89907 15.1607 7.89907C15.1551 7.90982 15.1498 7.92077 15.1448 7.93188C15.1448 7.93188 14.7838 8.7556 14.3188 9.56923C13.8479 10.3945 13.4999 10.7881 13.2899 10.9703C13.2841 10.9379 13.2851 10.9642 13.2814 10.9189C13.2625 10.6885 13.2835 10.37 13.2835 10.0592C13.2835 9.2223 13.3524 8.63655 13.3154 8.11891C13.2969 7.86009 13.2503 7.5932 13.0847 7.34782C12.9192 7.10243 12.6437 6.94301 12.3715 6.87532C12.2081 6.83477 12.0219 6.72932 11.3478 6.72219H11.3467C11.1406 6.72007 10.9422 6.71608 10.7504 6.71563ZM11.3361 7.84219C11.9326 7.8485 11.784 7.88228 12.1153 7.96469C12.218 7.99024 12.1931 7.99009 12.1907 7.98657C12.1883 7.98304 12.2185 8.04078 12.2301 8.20204C12.2532 8.52454 12.195 9.16575 12.195 10.0592C12.195 10.3029 12.1664 10.6505 12.1961 11.013C12.2257 11.3754 12.313 11.8405 12.7339 12.1209C12.9334 12.254 13.1651 12.2624 13.3632 12.2117C13.5613 12.161 13.7411 12.0555 13.9298 11.9C14.3073 11.589 14.7283 11.0642 15.2575 10.1369C15.7521 9.27129 16.1119 8.44703 16.1238 8.41969C16.1261 8.41777 16.1285 8.41644 16.1312 8.41423C16.138 8.4143 16.131 8.41423 16.1397 8.41423C16.3429 8.41423 18.0609 8.40001 18.4284 8.40001C18.5142 8.40001 18.5454 8.40533 18.6133 8.40766C18.5949 8.47109 18.6154 8.43063 18.5347 8.58048C18.3654 8.89474 18.0534 9.36178 17.5918 9.99688C16.8333 11.0391 16.3632 11.4475 16.2248 12.1395C16.1556 12.4856 16.2853 12.8691 16.4757 13.1283C16.666 13.3875 16.9063 13.6095 17.2251 13.9147C17.8153 14.4802 18.1616 14.8911 18.3603 15.1583C18.4597 15.2919 18.5223 15.3884 18.5612 15.4536C18.6002 15.5189 18.5905 15.512 18.641 15.598C18.6742 15.6552 18.6619 15.6203 18.6675 15.6374C18.6023 15.6563 18.5232 15.6791 18.5187 15.68L16.5171 15.6713C16.4811 15.6712 16.4451 15.6749 16.4097 15.6822C16.4097 15.6822 16.4148 15.6883 16.3077 15.6713C16.2006 15.6543 16.0303 15.6066 15.8113 15.4514C15.5469 15.2645 15.1768 14.8071 14.8142 14.3916C14.6329 14.1838 14.4521 13.9843 14.2274 13.8217C14.0028 13.6592 13.6666 13.5063 13.3037 13.6238C12.927 13.7455 12.6337 14.048 12.4905 14.373C12.3839 14.6149 12.3753 14.8676 12.3587 15.1189C12.3406 15.1203 12.3614 15.1189 12.3385 15.1189H11.4286C10.1922 15.1189 9.31434 15.2069 8.09505 13.8327C6.45495 11.9839 4.95229 8.90793 4.7073 8.4011L6.59517 8.40001C6.62835 8.41311 6.69937 8.44055 6.70359 8.44376L6.70572 8.44594C6.63671 8.39404 6.70891 8.46673 6.70891 8.46673C6.71557 8.48349 6.72302 8.49992 6.73123 8.51594C6.73123 8.51594 7.10531 9.26792 7.57843 10.1117C8.04252 10.939 8.38071 11.4557 8.70733 11.7972C8.87064 11.9679 9.03549 12.1049 9.25583 12.1822C9.47617 12.2595 9.76068 12.2312 9.95209 12.1231C10.3431 11.9029 10.3956 11.5781 10.4591 11.2941C10.5227 11.0097 10.548 10.7067 10.5601 10.4169C10.5835 9.85431 10.5504 9.36742 10.5484 9.33735C10.5485 9.32681 10.551 9.12377 10.5197 8.86376C10.4877 8.59751 10.4519 8.27197 10.2178 7.94391L10.2168 7.94282C10.2151 7.94052 10.2131 7.94068 10.2115 7.93844C10.521 7.89277 10.7859 7.83654 11.3361 7.84219ZM16.1376 8.39126L16.1302 8.40876H16.1281C16.1304 8.40424 16.1376 8.39126 16.1376 8.39126Z" fill="black"/>
</svg>
